<svg xmlns="http://www.w3.org/2000/svg" xmlns:xlink="http://www.w3.org/1999/xlink" width="500" zoomAndPan="magnify" viewBox="0 0 375 374.999991" height="500" preserveAspectRatio="xMidYMid meet" version="1.0"><path fill="#ffffff" d="M 67.984375 164.324219 C 89.691406 164.324219 107.355469 146.664062 107.355469 124.953125 C 107.355469 103.246094 89.699219 85.582031 67.984375 85.582031 C 46.269531 85.582031 28.613281 103.246094 28.613281 124.953125 C 28.613281 146.664062 46.269531 164.324219 67.984375 164.324219 Z M 67.984375 92.125 C 86.085938 92.125 100.8125 106.851562 100.8125 124.953125 C 100.8125 143.054688 86.085938 157.78125 67.984375 157.78125 C 49.882812 157.78125 35.15625 143.054688 35.15625 124.953125 C 35.15625 106.851562 49.882812 92.128906 67.984375 92.128906 Z M 67.984375 92.125 " fill-opacity="1" fill-rule="nonzero"/><path fill="#ffffff" d="M 361.5 37.105469 L 130.71875 37.105469 C 123.519531 37.105469 117.671875 42.964844 117.671875 50.15625 L 117.671875 171.511719 L 43.011719 171.511719 C 34.632812 171.511719 26.746094 174.785156 20.796875 180.71875 C 17.742188 183.777344 15.394531 187.46875 13.828125 191.464844 L 11.046875 191.464844 C 4.863281 191.464844 -0.171875 196.5 -0.171875 202.683594 L -0.171875 233.101562 C -0.171875 239.285156 4.863281 244.320312 11.046875 244.320312 L 12.773438 244.320312 C 15.214844 251.015625 21.628906 255.648438 28.964844 255.648438 C 32.953125 255.648438 36.6875 254.226562 39.738281 251.765625 L 39.738281 320.542969 C 39.738281 325.234375 41.550781 329.585938 44.789062 332.742188 C 48.003906 336.039062 52.363281 337.851562 57.046875 337.851562 C 62.832031 337.851562 67.9375 334.96875 71.085938 330.589844 C 74.226562 334.96875 79.332031 337.851562 85.125 337.851562 C 89.808594 337.851562 94.167969 336.039062 97.328125 332.792969 C 100.621094 329.574219 102.433594 325.222656 102.433594 320.535156 L 102.433594 206.125 L 117.664062 206.125 L 117.664062 227.652344 C 117.664062 234.84375 123.519531 240.699219 130.714844 240.699219 L 361.492188 240.699219 C 368.683594 240.699219 374.535156 234.84375 374.535156 227.652344 L 374.535156 50.15625 C 374.535156 42.964844 368.679688 37.105469 361.492188 37.105469 Z M 6.375 233.101562 L 6.375 202.683594 C 6.375 200.105469 8.46875 198.011719 11.046875 198.011719 L 65.234375 198.011719 C 67.8125 198.011719 69.910156 200.105469 69.910156 202.683594 L 69.910156 233.101562 C 69.910156 235.679688 67.8125 237.773438 65.234375 237.773438 L 45.921875 237.773438 L 45.921875 237.347656 C 45.3125 233.945312 43.617188 230.757812 41.191406 228.402344 C 37.914062 225.125 33.574219 223.316406 28.964844 223.316406 C 20.6875 223.316406 13.558594 229.203125 12.015625 237.308594 C 11.988281 237.46875 11.976562 237.625 11.96875 237.78125 L 11.039062 237.78125 C 8.460938 237.78125 6.367188 235.6875 6.367188 233.109375 Z M 28.964844 249.101562 C 23.828125 249.101562 19.40625 245.457031 18.5 241.046875 L 18.5 238.246094 C 19.566406 233.371094 23.921875 229.855469 28.964844 229.855469 C 31.824219 229.855469 34.523438 230.980469 36.601562 233.0625 C 38.089844 234.503906 39.109375 236.433594 39.425781 237.917969 L 39.476562 240.476562 C 39.109375 242.53125 38.089844 244.464844 36.570312 245.941406 C 34.527344 247.984375 31.824219 249.109375 28.972656 249.109375 Z M 99.167969 199.59375 C 97.363281 199.59375 95.898438 201.058594 95.898438 202.867188 L 95.898438 320.550781 C 95.898438 323.457031 94.785156 326.144531 92.710938 328.179688 C 90.726562 330.203125 88.035156 331.316406 85.132812 331.316406 C 79.195312 331.316406 74.359375 326.484375 74.359375 320.542969 L 74.359375 250.28125 C 74.359375 248.476562 72.894531 247.007812 71.085938 247.007812 C 69.28125 247.007812 67.8125 248.476562 67.8125 250.28125 L 67.8125 320.542969 C 67.8125 326.480469 62.992188 331.316406 57.046875 331.316406 C 54.144531 331.316406 51.453125 330.203125 49.410156 328.121094 C 47.390625 326.152344 46.277344 323.460938 46.277344 320.550781 L 46.277344 244.320312 L 65.230469 244.320312 C 71.414062 244.320312 76.445312 239.285156 76.445312 233.101562 L 76.445312 202.683594 C 76.445312 196.5 71.414062 191.464844 65.230469 191.464844 L 21.085938 191.464844 C 22.25 189.246094 23.625 187.140625 25.417969 185.347656 C 30.125 180.648438 36.367188 178.054688 43.003906 178.054688 L 120.824219 178.054688 C 120.863281 178.054688 120.898438 178.074219 120.9375 178.074219 C 120.976562 178.074219 121.007812 178.054688 121.046875 178.054688 L 138.082031 178.054688 C 140.941406 178.054688 143.640625 179.183594 145.714844 181.25 C 147.734375 183.226562 148.847656 185.917969 148.847656 188.820312 C 148.847656 194.757812 144.019531 199.59375 138.074219 199.59375 L 99.15625 199.59375 Z M 143.847656 205.078125 C 150.554688 202.691406 155.40625 196.339844 155.40625 188.820312 C 155.40625 184.136719 153.59375 179.785156 150.320312 176.589844 C 148.460938 174.730469 146.242188 173.410156 143.855469 172.558594 L 143.855469 63.285156 L 348.371094 63.285156 L 348.371094 214.527344 L 143.855469 214.527344 L 143.855469 205.078125 Z M 367.996094 227.65625 C 367.996094 231.242188 365.085938 234.164062 361.5 234.164062 L 130.71875 234.164062 C 127.132812 234.164062 124.214844 231.242188 124.214844 227.65625 L 124.214844 206.132812 L 137.304688 206.132812 L 137.304688 217.792969 C 137.304688 219.601562 138.769531 221.066406 140.574219 221.066406 L 351.636719 221.066406 C 353.441406 221.066406 354.910156 219.601562 354.910156 217.792969 L 354.910156 60.011719 C 354.910156 58.207031 353.441406 56.742188 351.636719 56.742188 L 140.574219 56.742188 C 138.769531 56.742188 137.304688 58.207031 137.304688 60.011719 L 137.304688 171.511719 L 124.214844 171.511719 L 124.214844 50.15625 C 124.214844 46.570312 127.132812 43.652344 130.71875 43.652344 L 361.5 43.652344 C 365.085938 43.652344 367.996094 46.570312 367.996094 50.15625 L 367.996094 227.664062 Z M 367.996094 227.65625 " fill-opacity="1" fill-rule="nonzero"/><path fill="#ffffff" d="M 163.3125 92.394531 C 161.503906 92.394531 160.039062 93.859375 160.039062 95.667969 L 160.039062 124.960938 C 160.039062 126.765625 161.503906 128.234375 163.3125 128.234375 C 165.117188 128.234375 166.582031 126.765625 166.582031 124.960938 L 166.582031 95.667969 C 166.582031 93.859375 165.117188 92.394531 163.3125 92.394531 Z M 163.3125 92.394531 " fill-opacity="1" fill-rule="nonzero"/><path fill="#ffffff" d="M 189.601562 73.179688 C 187.792969 73.179688 186.328125 74.648438 186.328125 76.453125 L 186.328125 124.953125 C 186.328125 126.761719 187.792969 128.226562 189.601562 128.226562 C 191.40625 128.226562 192.871094 126.761719 192.871094 124.953125 L 192.871094 76.453125 C 192.871094 74.648438 191.40625 73.179688 189.601562 73.179688 Z M 189.601562 73.179688 " fill-opacity="1" fill-rule="nonzero"/><path fill="#ffffff" d="M 215.882812 128.226562 C 217.691406 128.226562 219.15625 126.761719 219.15625 124.953125 L 219.15625 95.660156 C 219.15625 93.855469 217.691406 92.390625 215.882812 92.390625 C 214.078125 92.390625 212.609375 93.855469 212.609375 95.660156 L 212.609375 124.953125 C 212.609375 126.761719 214.078125 128.226562 215.882812 128.226562 Z M 215.882812 128.226562 " fill-opacity="1" fill-rule="nonzero"/><path fill="#ffffff" d="M 242.167969 128.226562 C 243.972656 128.226562 245.4375 126.761719 245.4375 124.953125 L 245.4375 76.453125 C 245.4375 74.648438 243.972656 73.179688 242.167969 73.179688 C 240.359375 73.179688 238.894531 74.648438 238.894531 76.453125 L 238.894531 124.953125 C 238.894531 126.761719 240.359375 128.226562 242.167969 128.226562 Z M 242.167969 128.226562 " fill-opacity="1" fill-rule="nonzero"/><path fill="#ffffff" d="M 268.449219 128.226562 C 270.253906 128.226562 271.722656 126.761719 271.722656 124.953125 L 271.722656 95.660156 C 271.722656 93.855469 270.253906 92.390625 268.449219 92.390625 C 266.644531 92.390625 265.175781 93.855469 265.175781 95.660156 L 265.175781 124.953125 C 265.175781 126.761719 266.644531 128.226562 268.449219 128.226562 Z M 268.449219 128.226562 " fill-opacity="1" fill-rule="nonzero"/><path fill="#ffffff" d="M 242.832031 151.191406 C 242.832031 152.996094 244.300781 154.464844 246.105469 154.464844 L 331.296875 154.464844 C 333.101562 154.464844 334.566406 152.996094 334.566406 151.191406 C 334.566406 149.386719 333.101562 147.917969 331.296875 147.917969 L 246.105469 147.917969 C 244.300781 147.917969 242.832031 149.386719 242.832031 151.191406 Z M 242.832031 151.191406 " fill-opacity="1" fill-rule="nonzero"/><path fill="#ffffff" d="M 331.296875 170.085938 L 246.097656 170.085938 C 244.292969 170.085938 242.828125 171.550781 242.828125 173.355469 C 242.828125 175.164062 244.292969 176.628906 246.097656 176.628906 L 331.296875 176.628906 C 333.101562 176.628906 334.566406 175.164062 334.566406 173.355469 C 334.566406 171.550781 333.101562 170.085938 331.296875 170.085938 Z M 331.296875 170.085938 " fill-opacity="1" fill-rule="nonzero"/><path fill="#ffffff" d="M 331.289062 192.25 L 201.316406 192.25 C 199.507812 192.25 198.042969 193.71875 198.042969 195.523438 C 198.042969 197.328125 199.507812 198.796875 201.316406 198.796875 L 331.289062 198.796875 C 333.09375 198.796875 334.5625 197.328125 334.5625 195.523438 C 334.5625 193.71875 333.09375 192.25 331.289062 192.25 Z M 331.289062 192.25 " fill-opacity="1" fill-rule="nonzero"/><path fill="#ffffff" d="M 183.835938 192.472656 C 183.378906 192.671875 183.050781 192.933594 182.714844 193.195312 C 182.128906 193.847656 181.800781 194.699219 181.800781 195.484375 C 181.800781 196.335938 182.128906 197.1875 182.714844 197.839844 C 183.050781 198.167969 183.378906 198.363281 183.835938 198.558594 C 184.226562 198.691406 184.613281 198.820312 185.070312 198.820312 C 185.921875 198.820312 186.773438 198.429688 187.367188 197.839844 C 187.695312 197.511719 187.886719 197.1875 188.082031 196.792969 C 188.277344 196.335938 188.34375 195.941406 188.34375 195.484375 C 188.34375 194.699219 187.953125 193.847656 187.367188 193.195312 C 186.445312 192.277344 185.011719 192.015625 183.835938 192.472656 Z M 183.835938 192.472656 " fill-opacity="1" fill-rule="nonzero"/></svg>